<svg width="28" height="28" viewBox="0 0 28 28" fill="none" xmlns="http://www.w3.org/2000/svg">
<path fill-rule="evenodd" clip-rule="evenodd" d="M14 28C21.732 28 28 21.732 28 14C28 6.26801 21.732 0 14 0C6.26801 0 0 6.26801 0 14C0 21.732 6.26801 28 14 28ZM16.8781 7.06277C17.7808 7.43747 18.5998 7.98808 19.2875 8.6825C20.69 10.085 21.4625 11.9525 21.4625 13.94C21.4625 18.035 18.125 21.3725 14.03 21.3725C12.785 21.3725 11.5625 21.0575 10.475 20.465L6.5375 21.5L7.5875 17.645C6.9425 16.52 6.5975 15.245 6.5975 13.9325C6.5975 9.8375 9.935 6.5 14.03 6.5C15.0073 6.49676 15.9755 6.68807 16.8781 7.06277ZM10.88 19.25C11.8325 19.8125 12.92 20.1125 14.03 20.1125C17.435 20.1125 20.21 17.345 20.195 13.94C20.1981 13.1278 20.04 12.3231 19.7297 11.5725C19.4194 10.8219 18.9632 10.1404 18.3875 9.5675C17.225 8.3975 15.6725 7.7525 14.0225 7.7525C10.6175 7.7525 7.8425 10.5275 7.8425 13.9325C7.84319 15.0945 8.17066 16.2328 8.7875 17.2175L8.9375 17.45L8.315 19.73L10.655 19.115L10.88 19.25ZM17.1731 15.3725C17.2845 15.4268 17.3741 15.4705 17.42 15.4925C17.4571 15.5103 17.4912 15.5261 17.5226 15.5405C17.6497 15.5991 17.7304 15.6363 17.7725 15.7025C17.825 15.785 17.825 16.1525 17.6675 16.5875C17.5175 17.0225 16.775 17.42 16.415 17.4725C16.0925 17.5175 15.6875 17.54 15.245 17.3975C14.975 17.315 14.63 17.2025 14.1875 17.0075C12.4093 16.2403 11.2137 14.4928 11.0334 14.2292C11.0251 14.2171 11.019 14.2081 11.015 14.2025L11.0135 14.2006C10.918 14.0732 10.2575 13.1927 10.2575 12.2825C10.2575 11.4383 10.6661 10.9899 10.8589 10.7783C10.8751 10.7606 10.8897 10.7445 10.9025 10.73C11.075 10.5425 11.27 10.4975 11.3975 10.4975H11.7575C11.7705 10.4984 11.7842 10.4985 11.7983 10.4987C11.9064 10.5 12.0449 10.5017 12.1775 10.82C12.3275 11.195 12.7025 12.11 12.7475 12.2C12.7925 12.29 12.8225 12.395 12.7625 12.5225C12.7574 12.5327 12.7524 12.5427 12.7476 12.5524C12.6957 12.6567 12.6573 12.734 12.575 12.83C12.5463 12.8635 12.516 12.9001 12.4854 12.9371C12.4203 13.0158 12.3537 13.0963 12.2975 13.1525C12.2 13.25 12.11 13.3475 12.215 13.535C12.3275 13.7225 12.695 14.33 13.25 14.825C13.8528 15.3637 14.3788 15.5898 14.6359 15.7003C14.6795 15.719 14.7153 15.7345 14.7425 15.7475C14.93 15.845 15.0425 15.83 15.1475 15.7025C15.2525 15.5825 15.605 15.1625 15.7325 14.975C15.86 14.795 15.98 14.825 16.1525 14.885C16.2771 14.936 16.8293 15.205 17.1731 15.3725Z" fill="#535149"/>
</svg>
