<?xml version="1.0" encoding="UTF-8"?>
<svg id="Layer_2" data-name="Layer 2" xmlns="http://www.w3.org/2000/svg" viewBox="0 0 135.37 143.72">
  <defs>
    <style>
      .cls-1 {
        fill: #231f20;
      }
    </style>
  </defs>
  <g id="Layer_1-2" data-name="Layer 1">
    <g>
      <path class="cls-1" d="M33.3,37.13h-16.9v23.01H4.73V1.22h33.8c3.89,0,9.78.56,14.23,5,4,4,4.78,9.34,4.78,13.34,0,3.45-.56,7.23-3.33,10.78-2,2.56-4.78,4.56-8.23,5.78l14.01,24.01h-13.12l-13.56-23.01ZM37.75,25.79c2.11,0,4.22-.11,5.89-1.78,1.33-1.33,1.89-3.34,1.89-5.23,0-2.78-1.22-4.45-2.45-5.22-1.67-1.22-4-1.11-6.23-1.11h-20.46v13.34h21.35Z"/>
      <path class="cls-1" d="M74.33,30.8c0-17.79,13.01-30.8,30.46-30.8s30.58,13.01,30.58,30.8-13.12,30.8-30.58,30.8-30.46-13.01-30.46-30.8M86.33,30.8c0,11.56,8.01,19.46,18.46,19.46s18.57-8.01,18.57-19.46-7.89-19.46-18.57-19.46-18.46,8-18.46,19.46"/>
      <polygon class="cls-1" points="49.37 80.49 32.36 101.61 15.12 80.49 0 80.49 26.46 111.95 26.46 139.41 38.14 139.41 38.14 111.95 64.71 80.49 49.37 80.49"/>
      <path class="cls-1" d="M115.97,97.02l.04.12c3.04,8.63,3.02,18.05-.04,26.67l14.56,7v12.9l-58.93-28.91v-8.78l58.93-29.13v12.9l-14.56,7.23ZM104.74,118.25h0c2.91-4.78,2.94-10.78.06-15.57l-.06-.1-15.79,7.89,15.79,7.78Z"/>
    </g>
  </g>
</svg>